<?xml version="1.0" encoding="utf-8"?>
<!-- Generator: Adobe Illustrator 22.1.0, SVG Export Plug-In . SVG Version: 6.00 Build 0)  -->
<svg version="1.1" id="Laag_1" xmlns="http://www.w3.org/2000/svg" xmlns:xlink="http://www.w3.org/1999/xlink" x="0px" y="0px"
	 width="40px" height="40px" viewBox="0 0 512 512" enable-background="new 0 0 512 512" xml:space="preserve">
<g>
	<polygon fill="#575E61" points="249.1,173.4 206.6,173.4 191.9,256 234.4,256 240.9,219.2 255.1,256 299.8,256 314.5,173.4
		269.8,173.4 263.2,210.4 	"/>
	<polygon fill="#575E61" points="49.5,235.7 60.5,173.4 14.6,173.4 0,256 71.7,256 75.3,235.7 	"/>
	<polygon fill="#575E61" points="133,173.4 86.4,173.4 76.1,231.2 122.8,231.2 	"/>
	<path fill="#4F5556" d="M262.5,211.4"/>
	<path fill="#575E61" d="M136.2,229.4c-0.8,4.7-2.7,6.3-6.2,6.3l-8,0l-3.6,20.4h32.7c17.6,0,27.6-9.3,31.3-30.5l9.2-52.1l-45.5,0
		L136.2,229.4z"/>
	<g>
		<polygon fill="#FFDD00" points="512,8.3 175.3,8.3 154.6,125.2 491.3,125.2 		"/>
		<polygon fill="#FFDD00" points="87.6,503.7 424.3,503.7 465.7,269.7 129,269.7 		"/>
	</g>
	<polygon fill="#575E61" points="130.1,151.1 133.9,151.1 134.6,147 130.8,147 131.4,144.2 138.1,144.2 139,139 122.1,139
		118.5,159.6 135.4,159.6 136.3,154.2 129.6,154.2 	"/>
	<path fill="#575E61" d="M101.4,154.1H100l1.7-9.8h1.5c0,0,1.6-0.1,2.8,0.2c1,0.3,2.3,1.9,1.8,4.6c-0.6,3.3-2.3,4.5-3.9,4.9
		C103,154.1,101.4,154.1,101.4,154.1z M110.1,159.3c3.4-0.7,6.9-3.1,8.2-10.2c1-5.6-1.6-8.6-3.6-9.4c-1.7-0.7-4.4-0.7-6-0.7l-16.2,0
		l-3.6,20.6c0,0,15,0,16.3,0C106.3,159.6,108.4,159.7,110.1,159.3z"/>
	<g>
		<polygon fill="#000099" points="316.9,159.6 320.5,139 257.7,139 254.1,159.6 		"/>
		<polygon fill="#000099" points="251.3,159.6 254.9,139 152.2,139 148.5,159.6 		"/>
		<polygon fill="#000099" points="357,159.6 360.7,139 323.5,139 319.8,159.6 		"/>
		<polygon fill="#000099" points="382.3,159.6 386,139 364,139 360.4,159.6 		"/>
		<polygon fill="#000099" points="399.7,159.6 403.3,139 389.8,139 386.2,159.6 		"/>
		<polygon fill="#000099" points="412.5,159.6 416.1,139 407.7,139 404.1,159.6 		"/>
		<polygon fill="#000099" points="422.4,159.6 426.1,139 421.3,139 417.6,159.6 		"/>
		<polygon fill="#000099" points="432.3,159.6 436,139 432.2,139 428.6,159.6 		"/>
		<polygon fill="#000099" points="440.9,159.6 444.6,139 442.3,139 438.7,159.6 		"/>
		<polygon fill="#000099" points="450.6,159.6 454.3,139 452.5,139 448.8,159.6 		"/>
		<polygon fill="#000099" points="460.8,159.6 464.4,139 462.8,139 459.2,159.6 		"/>
		<polygon fill="#000099" points="472,159.6 475.7,139 474.4,139 470.8,159.6 		"/>
		<polygon fill="#000099" points="485.2,159.6 488.8,139 487.8,139 484.2,159.6 		"/>
	</g>
</g>
</svg>
