<?xml version="1.0" encoding="UTF-8" standalone="no"?>
<svg
   xmlns:dc="http://purl.org/dc/elements/1.1/"
   xmlns:cc="http://creativecommons.org/ns#"
   xmlns:rdf="http://www.w3.org/1999/02/22-rdf-syntax-ns#"
   xmlns:svg="http://www.w3.org/2000/svg"
   xmlns="http://www.w3.org/2000/svg"
   xmlns:sodipodi="http://sodipodi.sourceforge.net/DTD/sodipodi-0.dtd"
   xmlns:inkscape="http://www.inkscape.org/namespaces/inkscape"
   viewBox="0 0 25.220485 40.000001"
   version="1.1"
   id="svg12"
   sodipodi:docname="vlaanderen.svg"
   width="31.52560"
   height="50"
   inkscape:version="0.92.3 (2405546, 2018-03-11)">
  <metadata
     id="metadata18">
    <rdf:RDF>
      <cc:Work
         rdf:about="">
        <dc:format>image/svg+xml</dc:format>
        <dc:type
           rdf:resource="http://purl.org/dc/dcmitype/StillImage" />
        <dc:title></dc:title>
      </cc:Work>
    </rdf:RDF>
  </metadata>
  <defs
     id="defs16" />
  <sodipodi:namedview
     pagecolor="#ffffff"
     bordercolor="#666666"
     borderopacity="1"
     objecttolerance="10"
     gridtolerance="10"
     guidetolerance="10"
     inkscape:pageopacity="0"
     inkscape:pageshadow="2"
     inkscape:window-width="1211"
     inkscape:window-height="795"
     id="namedview14"
     showgrid="false"
     units="px"
     fit-margin-top="0"
     fit-margin-left="0"
     fit-margin-right="0"
     fit-margin-bottom="0"
     inkscape:zoom="5.9"
     inkscape:cx="19.992623"
     inkscape:cy="20.040001"
     inkscape:window-x="0"
     inkscape:window-y="30"
     inkscape:window-maximized="0"
     inkscape:current-layer="svg12" />
  <path
     id="Logo_Vlaanderen"
     d="m 25.220486,20.585397 c -1.389514,-1.055001 -2.045673,0 -2.920553,0 -0.874879,0 -1.440978,-1.286587 -2.007076,-0.96494 -1.093599,0.553232 0.43744,2.573174 1.106465,2.920553 a 16.095207,16.095207 0 0 0 1.518173,0.759086 2.2129302,2.2129302 0 0 1 1.286587,1.994211 3.859762,3.859762 0 0 1 0,0.96494 c -0.398842,1.698296 -3.39659,3.2422 -5.146349,2.071406 a 3.859762,3.859762 0 0 1 -1.801222,-2.573175 c -0.463172,-2.225796 -2.084272,-3.859762 -2.573175,-6.04696 -0.321647,-1.286588 -0.553232,-2.727565 -0.900611,-4.05275 -0.347379,-1.325185 -0.707623,-2.791895 -1.003538,-4.078482 A 35.303956,35.303956 0 0 0 11.569795,7.616597 C 9.9100974,3.3579929 9.1767426,3.6667739 9.1767426,3.6667739 c 0,0 0.5918302,1.1836603 2.7661624,11.5792861 a 61.498874,61.498874 0 0 0 1.453844,6.625925 c 0.205854,0.540366 0.566098,1.698295 0.797684,2.21293 0.694757,1.492441 2.573175,3.756835 2.637504,5.802509 0.06433,1.18366 0.205854,2.161466 0.231586,3.049212 a 9.4821486,9.4821486 0 0 0 0.308781,1.801222 C 17.822609,36.024445 21.412188,40 25.220486,40 v -3.100675 a 13.99807,13.99807 0 0 1 -7.44934,-2.341589 8.1955613,8.1955613 0 0 1 0.450305,-2.187199 3.5767128,3.5767128 0 0 1 3.074944,-2.495979 23.042779,23.042779 0 0 1 3.859762,0.398842 V 20.585397 Z M 8.7650347,9.4692827 C 8.6235101,11.746542 5.072529,14.87295 3.9660639,16.86716 a 14.705693,14.705693 0 0 0 -1.4023802,3.653908 9.6880026,9.6880026 0 0 0 0.7976842,6.008363 c 1.1707945,2.80476 -0.1543905,3.859762 0.7590865,3.267931 1.1321969,-0.926342 0.9649405,-3.074943 0.8748794,-4.412994 a 19.002895,19.002895 0 0 1 0,-3.628176 17.098746,17.098746 0 0 1 3.1006755,-6.857511 6.2270827,6.2270827 0 0 0 0.6690254,-5.4293983 m 0.7204889,6.4329363 c 0,0 0.3731103,1.801223 -1.2865874,6.432937 -4.1942746,12.15825 3.8597618,13.303313 6.0984238,16.159537 0,0 0.887745,-1.286587 -2.753297,-5.146349 -1.286587,-1.440978 -2.5731744,-4.631715 -1.479575,-9.1991 1.505307,-6.600193 -0.6432938,-8.221293 -0.6432938,-8.221293 M 1.5472798,7.9768414 A 5.8282406,5.8282406 0 0 1 1.2770964,6.0469604 C 1.5344139,3.1907366 4.1461862,2.032808 4.7894798,1.6082342 A 3.4737858,3.4737858 0 0 0 6.1146648,0 3.859762,3.859762 0 0 1 4.5578941,4.7217755 7.7967192,7.7967192 0 0 0 1.5472798,7.9768414 M 8.121741,5.2106787 c 0.1415246,0.2959151 1.2865873,1.8655516 -3.1907366,5.4937283 -4.47732387,3.628176 -3.0363461,6.227082 -3.0363461,6.227082 0,0 -4.7089096,-2.573174 0.7204889,-7.1148277 C 8.0445458,5.275008 6.9252148,4.4129945 6.9252148,4.4129945 a 1.3509167,1.3509167 0 0 1 1.1965262,0.81055 m 5.738179,1.3895144 c 0.759087,0.1029269 1.286588,2.4702476 3.02348,2.9848826 1.286588,0.3731103 2.676102,0.1672563 2.984883,0.9520745 a 0.66902541,0.66902541 0 0 0 0.476037,1.18366 c 0.501769,-1.440977 0.746221,-6.7417172 -6.471534,-5.1206171 z m 2.393053,1.1064651 c 0,-0.1672564 0.15439,0 0.347378,-0.1543905 a 2.135735,2.135735 0 0 1 0.759087,-0.6175619 1.2865873,1.2865873 0 0 1 0.797684,0 c 0.15439,0 0,0.4245738 0,0.5146349 0,0.090061 -0.952075,-0.1157929 -0.952075,0.4117079 0,0.8620136 1.170795,0 1.775491,0 0.295915,2.1100033 -3.190737,1.531039 -2.676102,-0.2058539 v 0 z"
     inkscape:connector-curvature="0"
     style="fill:#797f84;stroke-width:1.28658736" />
</svg>
